<svg id="Capa_1" enable-background="new 0 0 150.241 150.241" viewBox="0 0 150.241 150.241" xmlns="http://www.w3.org/2000/svg"><g><path d="m56.076 69.939h-45.344c-5.924-.006-10.725-4.807-10.732-10.731v-45.344c.007-5.924 4.807-10.725 10.732-10.731h45.344c5.924.006 10.725 4.807 10.732 10.731v45.344c-.007 5.924-4.808 10.725-10.732 10.731zm-45.344-59.652c-1.974.003-3.574 1.603-3.577 3.577v45.344c.003 1.974 1.603 3.574 3.577 3.577h45.344c1.974-.003 3.574-1.603 3.577-3.577v-45.344c-.003-1.974-1.603-3.574-3.577-3.577z"/><path d="m139.509 69.939h-45.343c-5.924-.006-10.725-4.806-10.732-10.73v-45.345c.007-5.924 4.808-10.725 10.732-10.731h45.343c5.924.007 10.725 4.807 10.732 10.732v45.344c-.007 5.923-4.808 10.724-10.732 10.73zm-45.343-59.646c-1.97.005-3.566 1.601-3.571 3.571v45.344c.001 1.975 1.602 3.576 3.577 3.577h45.343c1.974-.003 3.574-1.603 3.577-3.577v-45.344c-.003-1.974-1.603-3.574-3.577-3.577z"/><path d="m56.076 147.108h-45.344c-5.925-.006-10.725-4.807-10.732-10.732v-45.344c.007-5.924 4.807-10.725 10.732-10.732h45.344c5.924.007 10.725 4.808 10.732 10.732v45.344c-.007 5.925-4.808 10.726-10.732 10.732zm-45.344-59.653c-1.975.001-3.576 1.602-3.577 3.577v45.344c.003 1.974 1.603 3.574 3.577 3.577h45.344c1.974-.003 3.574-1.603 3.577-3.577v-45.344c-.001-1.975-1.602-3.576-3.577-3.577z"/><path d="m116.838 147.108c-18.449.001-33.405-14.954-33.406-33.403s14.954-33.405 33.403-33.406 33.405 14.954 33.406 33.403v.007c-.024 18.438-14.966 33.378-33.403 33.399zm0-59.645c-14.497-.001-26.251 11.751-26.252 26.249-.001 14.497 11.751 26.251 26.249 26.252s26.251-11.751 26.252-26.249c0-.002 0-.003 0-.005-.012-14.492-11.756-26.239-26.249-26.255z"/></g><g/><g/><g/><g/><g/><g/><g/><g/><g/><g/><g/><g/><g/><g/><g/></svg>